<svg width="100" height="100" viewBox="0 0 100 100" fill="none" xmlns="http://www.w3.org/2000/svg">
<path d="M50 0C22.384 0 0 22.384 0 50C0 77.616 22.384 100 50 100C77.616 100 100 77.616 100 50C100 22.384 77.616 0 50 0ZM10.744 50.52L49.48 89.256C28.208 88.98 11.02 71.792 10.744 50.52ZM58.788 88.276L11.724 41.212C15.716 23.76 31.336 10.736 50 10.736C63.044 10.736 74.604 17.1 81.744 26.892L76.308 31.688C70.516 23.384 60.892 17.948 50 17.948C36.132 17.948 24.32 26.756 19.856 39.084L60.916 80.14C70.888 76.528 78.556 68.112 81.124 57.688H64.108V50H89.268C89.264 68.664 76.24 84.284 58.788 88.276Z" fill="white"/>
</svg>
