<svg width="332" height="265" viewBox="0 0 332 265" fill="white" xmlns="http://www.w3.org/2000/svg">
    <path fill-rule="evenodd" clip-rule="evenodd" d="M68.9574 0C50.014 0 35.9967 16.6135 36.6244 34.6304C37.2268 51.9398 36.4441 74.3579 30.8118 92.6399C25.1594 110.973 15.6066 122.591 0 124.082V140.918C15.6066 142.412 25.1594 154.024 30.8112 172.36C36.4441 190.642 37.2261 213.06 36.6237 230.37C35.9961 248.384 50.0133 265 68.96 265H263.068C282.011 265 296.026 248.386 295.398 230.37C294.796 213.06 295.579 190.642 301.211 172.36C306.863 154.024 316.393 142.408 332 140.918V124.082C316.393 122.588 306.864 110.976 301.211 92.6399C295.578 74.3605 294.796 51.9398 295.398 34.6304C296.026 16.6161 282.011 0 263.068 0H68.9548H68.9574ZM225.085 163.125C225.085 187.933 206.617 202.979 175.968 202.979H123.796C122.304 202.979 120.873 202.385 119.817 201.328C118.762 200.27 118.169 198.836 118.169 197.341V67.6599C118.169 66.1645 118.762 64.7304 119.817 63.673C120.873 62.6156 122.304 62.0216 123.796 62.0216H175.671C201.227 62.0216 217.999 75.8919 217.999 97.1874C217.999 112.134 206.716 125.515 192.342 127.86V128.639C211.909 130.79 225.085 144.369 225.085 163.125ZM170.28 79.8949H140.532V121.997H165.587C184.956 121.997 195.636 114.182 195.636 100.214C195.634 87.1231 186.452 79.8949 170.28 79.8949ZM140.532 138.702V185.1H171.374C191.541 185.1 202.222 176.992 202.222 161.755C202.222 146.517 191.241 138.7 170.077 138.7H140.532V138.702Z" />
</svg>