<svg width="93" height="100" viewBox="0 0 93 100" fill="none" xmlns="http://www.w3.org/2000/svg">
<path d="M32.5472 21.4935C19.479 19.1134 9.14633 21.6052 5.02833 28.737C1.95538 34.059 2.83262 41.1162 7.15732 48.6597C7.24482 48.8125 7.36157 48.9465 7.50091 49.0542C7.64024 49.1618 7.79943 49.241 7.96937 49.2871C8.13931 49.3332 8.31667 49.3454 8.49131 49.3229C8.66595 49.3004 8.83445 49.2437 8.98717 49.1561C9.29559 48.9791 9.52112 48.6869 9.6142 48.3438C9.70729 48.0006 9.6603 47.6345 9.48357 47.3259C5.5875 40.5316 4.82819 34.4411 7.34958 30.077C10.77 24.1523 19.9854 21.9298 32.066 24.1305C32.2844 24.1736 32.5101 24.1618 32.7227 24.0959C32.9354 24.03 33.1283 23.9122 33.284 23.7532C33.4397 23.5941 33.5534 23.3988 33.6148 23.1848C33.6762 22.9709 33.6833 22.745 33.6356 22.5276C33.5779 22.2662 33.4433 22.028 33.2491 21.8438C33.0549 21.6595 32.81 21.5376 32.5459 21.4938L32.5472 21.4935ZM13.953 57.8278C19.2366 63.6349 26.1016 69.0813 33.9308 73.602C52.8867 84.5464 73.0672 87.4717 83.0126 80.69C83.299 80.4869 83.4943 80.1794 83.5564 79.8338C83.6186 79.4882 83.5426 79.132 83.3448 78.8418C83.147 78.5516 82.8433 78.3507 82.4989 78.2821C82.1545 78.2136 81.7969 78.283 81.5031 78.4753C72.6016 84.5451 53.4317 81.766 35.2711 71.2807C27.6751 66.8948 21.0281 61.6214 15.9357 56.0247C15.7586 55.8238 15.5255 55.6805 15.2662 55.6133C15.007 55.546 14.7336 55.5579 14.4812 55.6473C14.2714 55.7219 14.0834 55.8475 13.9343 56.0129C13.7853 56.1783 13.6798 56.3783 13.6273 56.5947C13.5749 56.8111 13.5772 57.0372 13.6341 57.2525C13.691 57.4678 13.8006 57.6655 13.953 57.8278Z" fill="white"/>
<path d="M79.8411 56.1978C88.3975 46.0896 91.3857 35.9224 87.2766 28.8047C84.2527 23.5676 77.8597 20.8025 69.3647 20.6922C69.0094 20.6876 68.6667 20.8243 68.4121 21.0722C68.1574 21.3201 68.0116 21.659 68.0066 22.0143C68.0027 22.2795 68.0777 22.5398 68.222 22.7622C68.3664 22.9846 68.5736 23.1591 68.8174 23.2635C68.9791 23.3331 69.153 23.3701 69.329 23.3725C76.9696 23.4712 82.4778 25.8539 84.9556 30.145C88.3681 36.0571 85.7044 45.1239 77.7956 54.4667C77.6779 54.6004 77.588 54.7562 77.5312 54.9251C77.4744 55.0939 77.4519 55.2724 77.465 55.4501C77.4781 55.6278 77.5265 55.8011 77.6074 55.9598C77.6883 56.1186 77.8001 56.2595 77.9361 56.3745C78.0722 56.4893 78.2298 56.5759 78.3997 56.6293C78.5696 56.6826 78.7484 56.7016 78.9256 56.6851C79.1029 56.6687 79.2752 56.6171 79.4324 56.5335C79.5895 56.4498 79.7285 56.3357 79.8411 56.1978ZM57.8509 21.94C50.1139 23.5981 41.8795 26.8389 33.9718 31.4044C14.4019 42.7028 1.63627 59.3616 3.40991 71.4422C3.43197 71.6193 3.48918 71.7902 3.57818 71.9448C3.66718 72.0995 3.78619 72.2349 3.92821 72.3429C4.07023 72.451 4.23241 72.5296 4.40523 72.5742C4.57804 72.6187 4.75801 72.6283 4.93458 72.6023C5.11114 72.5763 5.28074 72.5154 5.43342 72.423C5.5861 72.3306 5.71879 72.2086 5.8237 72.0642C5.9286 71.9199 6.00361 71.756 6.04432 71.5822C6.08504 71.4085 6.09063 71.2284 6.06078 71.0524C4.48728 60.3273 16.5871 44.5353 35.3107 33.7256C42.9823 29.2962 50.9565 26.1591 58.4127 24.5599C58.7496 24.4752 59.0406 24.263 59.2241 23.9681C59.4077 23.6731 59.4696 23.3184 59.3967 22.9787C59.3239 22.639 59.122 22.3409 58.8336 22.1471C58.5453 21.9533 58.1929 21.8791 57.8509 21.94Z" fill="white"/>
<path d="M26.1476 79.8168C30.6233 92.3079 37.9411 100 46.1719 100C52.1736 100 57.7267 95.909 62.0574 88.7055C62.1545 88.5546 62.2203 88.3857 62.251 88.2089C62.2817 88.0321 62.2766 87.851 62.236 87.6762C62.1853 87.4572 62.0802 87.2545 61.9306 87.0868C61.7809 86.9191 61.5914 86.7917 61.3796 86.7164C61.1678 86.6411 60.9405 86.6204 60.7185 86.6561C60.4966 86.6917 60.2872 86.7827 60.1096 86.9205C59.9678 87.0306 59.8496 87.1677 59.7619 87.3242C55.8695 93.7982 51.0886 97.321 46.1719 97.321C39.3363 97.321 32.8075 90.46 28.6716 78.9128C28.6148 78.7436 28.525 78.5875 28.4072 78.4535C28.2895 78.3195 28.1462 78.2102 27.9858 78.1322C27.8253 78.0544 27.651 78.0093 27.4729 77.9995C27.2948 77.9902 27.1166 78.0164 26.9488 78.0766C26.7809 78.1369 26.6268 78.23 26.4953 78.3506C26.3639 78.4711 26.2578 78.6166 26.1833 78.7786C26.1087 78.9406 26.0672 79.1159 26.0612 79.2941C26.0554 79.4725 26.0852 79.6501 26.1489 79.8168H26.1476ZM67.014 77.3724C69.33 69.9729 70.5729 61.4343 70.5729 52.5366C70.5729 30.3374 62.8038 11.1995 51.7363 6.28511C51.4128 6.14904 51.0489 6.14524 50.7227 6.27454C50.3965 6.40383 50.134 6.6559 49.9916 6.9766C49.8492 7.29731 49.8382 7.66107 49.9611 7.98976C50.084 8.31845 50.3308 8.58585 50.6487 8.73453C60.5196 13.1181 67.8939 31.28 67.8939 52.5366C67.8939 61.1674 66.6884 69.4368 64.4569 76.5723C64.3992 76.7415 64.3759 76.9206 64.3886 77.0989C64.4012 77.2772 64.4494 77.4512 64.5305 77.6106C64.6524 77.8507 64.8438 78.0485 65.0798 78.1782C65.3158 78.3079 65.5854 78.3635 65.8534 78.3378C66.1215 78.3121 66.3756 78.2063 66.5826 78.034C66.7896 77.8618 66.94 77.6312 67.014 77.3724ZM92.2513 76.0604C92.2567 75.2148 92.0948 74.3764 91.7749 73.5935C91.455 72.8107 90.9834 72.0988 90.3874 71.4989C89.7913 70.899 89.0824 70.423 88.3016 70.0981C87.5208 69.7732 86.6835 69.606 85.8378 69.606C84.9921 69.606 84.1548 69.7733 83.374 70.0982C82.5932 70.4231 81.8844 70.8992 81.2883 71.4991C80.6922 72.099 80.2207 72.8109 79.9008 73.5938C79.581 74.3766 79.4191 75.215 79.4245 76.0607C79.4354 77.7545 80.1159 79.3753 81.3175 80.5692C82.5191 81.763 84.1442 82.4331 85.838 82.4331C87.5319 82.433 89.157 81.7629 90.3585 80.569C91.5601 79.375 92.2405 77.7543 92.2513 76.0604ZM89.571 76.0604C89.5708 77.0505 89.1774 77.9999 88.4773 78.7C87.7773 79.4001 86.8278 79.7935 85.8378 79.7937C85.0995 79.7936 84.3778 79.5747 83.764 79.1645C83.1501 78.7542 82.6717 78.1712 82.3892 77.4891C82.1067 76.807 82.0328 76.0565 82.1768 75.3324C82.3209 74.6083 82.6764 73.9431 83.1984 73.4211C83.7205 72.899 84.3856 72.5435 85.1097 72.3995C85.8338 72.2554 86.5844 72.3293 87.2665 72.6118C87.9486 72.8943 88.5316 73.3728 88.9418 73.9866C89.352 74.6005 89.571 75.3222 89.571 76.0604ZM6.41352 82.474C7.25578 82.4741 8.08982 82.3083 8.86799 81.986C9.64616 81.6637 10.3532 81.1913 10.9488 80.5957C11.5444 80.0002 12.0168 79.2931 12.3391 78.5149C12.6613 77.7367 12.8271 76.9027 12.827 76.0604C12.8271 75.2182 12.6613 74.3841 12.339 73.6059C12.0167 72.8278 11.5442 72.1207 10.9486 71.5251C10.353 70.9296 9.64595 70.4572 8.86777 70.1349C8.08958 69.8126 7.25553 69.6468 6.41326 69.6469C5.57102 69.6469 4.73703 69.8128 3.95891 70.1351C3.18078 70.4574 2.47377 70.9298 1.87823 71.5253C1.28269 72.1209 0.810303 72.8279 0.488035 73.6061C0.165766 74.3842 -6.89666e-05 75.2182 2.1517e-08 76.0604C-6.89705e-05 76.9027 0.165775 77.7367 0.48806 78.5149C0.810345 79.293 1.28276 80.0001 1.87832 80.5956C2.47389 81.1912 3.18094 81.6636 3.95909 81.9859C4.73725 82.3082 5.57127 82.474 6.41352 82.474ZM6.41352 79.7937C5.4232 79.7937 4.47343 79.4003 3.77317 78.7C3.07291 77.9997 2.6795 77.05 2.6795 76.0597C2.6795 75.0693 3.07291 74.1196 3.77317 73.4193C4.47343 72.719 5.4232 72.3256 6.41352 72.3256C7.40384 72.3256 8.35361 72.719 9.05387 73.4193C9.75414 74.1196 10.1475 75.0693 10.1475 76.0597C10.1475 77.05 9.75414 77.9997 9.05387 78.7C8.35361 79.4003 7.40384 79.7937 6.41352 79.7937Z" fill="white"/>
<path d="M46.1719 12.827C47.4405 12.8271 48.6805 12.451 49.7352 11.7462C50.7899 11.0415 51.6119 10.0397 52.0972 8.86766C52.5006 7.89324 52.6575 6.83439 52.554 5.78488C52.4505 4.73536 52.0898 3.72755 51.5039 2.85067C50.918 1.9738 50.1249 1.25493 49.1949 0.757694C48.2648 0.260462 47.2265 0.00021655 46.1719 9.25897e-08C44.9034 -0.000215419 43.6633 0.375792 42.6085 1.08046C41.5536 1.78513 40.7315 2.7868 40.246 3.95878C39.7606 5.13076 39.6336 6.42038 39.8812 7.66453C40.1287 8.90868 40.7397 10.0515 41.6368 10.9483C42.2324 11.5439 42.9394 12.0163 43.7176 12.3386C44.4957 12.6609 45.3297 12.8268 46.1719 12.8268V12.827ZM46.1719 10.1465C45.4336 10.1464 44.7119 9.92741 44.098 9.51724C43.4841 9.10706 43.0055 8.5241 42.7229 7.84203C42.5351 7.38914 42.4384 6.90366 42.4384 6.41338C42.4384 5.92309 42.5351 5.43762 42.7229 4.98473C42.9104 4.53178 43.1853 4.12022 43.532 3.77358C43.8786 3.42693 44.2902 3.15199 44.7431 2.96447C45.2532 2.75321 45.8038 2.65769 46.3552 2.68479C46.9066 2.71189 47.4452 2.86093 47.932 3.12119C48.4189 3.38145 48.842 3.74644 49.1709 4.18988C49.4998 4.63332 49.7262 5.14417 49.8339 5.68565C49.9416 6.22712 49.9279 6.78575 49.7938 7.32128C49.6596 7.85682 49.4084 8.35594 49.0581 8.78271C48.7079 9.20947 48.2674 9.55326 47.7683 9.7893C47.2692 10.0253 46.724 10.1478 46.1719 10.1478V10.1465ZM47.1516 57.0737C45.9484 57.3333 44.6914 57.1046 43.6568 56.4378C42.8852 55.9405 42.2784 55.2254 41.9131 54.3832C41.5479 53.5409 41.4407 52.6093 41.605 51.7061C41.7693 50.8029 42.1978 49.9687 42.8363 49.3091C43.4748 48.6494 44.2946 48.194 45.192 48.0003C46.3869 47.7616 47.6278 48.0022 48.6468 48.6704C49.6658 49.3385 50.3813 50.3805 50.6387 51.5715C50.8958 52.7626 50.6742 54.007 50.0218 55.0361C49.3694 56.0653 48.3385 56.7966 47.1516 57.0723V57.0737Z" fill="white"/>
</svg>
