<svg width="458" height="102" viewBox="0 0 458 102" fill="none" xmlns="http://www.w3.org/2000/svg">
<path fill-rule="evenodd" clip-rule="evenodd" d="M25.286 1.39C15.929 4.449 8.953 10.259 4.739 18.504C3.894 20.155 2.41 25.2 1.44 29.713C-0.0680038 36.732 -0.158004 39.084 0.815996 45.974C2.87 60.499 8.381 68.538 19.9 73.812C36.2 81.274 54.834 74.985 62.132 59.558C65.449 52.548 65.599 51.444 63.355 50.583C61.168 49.743 58.369 52.405 57.648 56.012C56.858 59.959 50.389 66.926 45.5 69.094C34.449 73.995 22.621 72.044 14.874 64.043C10.023 59.032 7.664 53.524 6.609 44.75L6.038 40H36.08H66.121L65.428 32.75C64.066 18.494 58 8.593 47.47 3.441C40.895 0.224 31.508 -0.643 25.286 1.39ZM165.479 1.738C158.588 4.208 154.283 7.484 150.881 12.849L148 17.392V9.696V2H145H142V52V102H145H148V82.522V63.045L152.023 67.409C162.406 78.673 181.989 80.052 195.22 70.45C198.762 67.879 200.741 65.28 203.672 59.349C207.498 51.607 207.5 51.599 207.485 39.052C207.471 27.109 207.319 26.179 204.363 19.895C198.341 7.09 190.625 1.545 177.353 0.486C172.193 0.0739998 169.259 0.384 165.479 1.738ZM281.5 0.892C264.862 5.381 255 19.748 255 39.5C255 55.846 262.173 68.595 274.5 74.158C278.402 75.919 281.367 76.421 288 76.444C298.548 76.481 304.923 73.928 311.296 67.114C318.026 59.92 321.225 49.219 316.36 50.176C314.603 50.522 314.086 51.271 311.335 57.457C307.076 67.035 296.75 72.781 285.846 71.642C278.334 70.857 273.255 68.233 268.257 62.555C264.141 57.878 261 49.495 261 43.184V40H291C314.334 40 321 39.722 320.999 38.75C320.998 38.063 320.341 33.768 319.538 29.207C317.153 15.658 312.432 8.786 301.807 3.402C296.492 0.709 286.676 -0.505 281.5 0.892ZM347.85 1.849C340.604 4.251 336.657 7.095 334.623 11.381C331.363 18.252 333.308 29.006 338.416 32.353C341.196 34.174 354.838 39.023 365.5 41.979C379.928 45.98 383.004 48.568 382.996 56.7C382.987 66.184 375.06 71.508 361 71.474C353.547 71.456 351.858 71.101 347.292 68.59C341.4 65.352 337.2 60.006 336.329 54.638C335.809 51.437 335.394 51 332.869 51C329.555 51 329.425 51.708 331.471 58.568C334.395 68.367 341.402 73.735 354.395 76.129C368.804 78.784 384.183 72.619 387.936 62.685C390.7 55.37 387.614 44.748 381.679 41.146C379.931 40.085 371.75 37.406 363.5 35.192C345.265 30.299 344.1 29.858 341.202 26.741C338.486 23.82 337.883 17.456 339.954 13.586C340.709 12.175 343.391 10.003 345.914 8.76C349.701 6.894 352.155 6.5 360 6.5C368.229 6.5 370.005 6.814 373.274 8.847C377.199 11.287 379.891 15.368 380.957 20.494C381.592 23.546 384.374 25.026 386.146 23.254C387.583 21.817 385.242 13.006 382.453 9.349C376.471 1.507 359.791 -2.108 347.85 1.849ZM419 1.288C412.061 3.262 405.801 7.159 403.658 10.837C399.859 17.359 401.789 28.885 407.271 32.418C409.596 33.916 424.221 38.961 439.292 43.464C446.798 45.707 448.371 46.56 450.039 49.296C452.523 53.37 452.541 59.6 450.081 63.635C448.92 65.538 445.983 67.84 442.606 69.492C437.702 71.891 436.12 72.171 429.248 71.857C422.498 71.548 420.787 71.069 416.477 68.28C411.305 64.934 407.276 59.954 405.417 54.612C404.605 52.278 403.632 51.418 401.526 51.17C398.757 50.845 398.728 50.897 399.386 55.012C400.975 64.948 407.171 71.737 417.588 74.955C438.487 81.409 459.311 70.992 457.76 54.859C457.176 48.779 453.213 42.651 448.249 40.153C446.187 39.116 437.3 36.406 428.5 34.132C411.09 29.632 408.693 28.211 407.464 21.658C406.689 17.527 408.955 11.73 412.166 9.629C413.45 8.789 417.2 7.39 420.5 6.521C425.418 5.226 427.688 5.138 433.089 6.034C436.714 6.635 441.04 7.954 442.703 8.966C445.896 10.907 450 18.135 450 21.816C450 23.479 450.596 24 452.5 24C454.726 24 454.998 23.589 454.978 20.25C454.949 15.216 451.88 8.75 448.367 6.317C440.826 1.094 427.627 -1.166 419 1.288ZM71 2.508C71 2.788 76.472 10.1 83.161 18.758C89.849 27.416 95.711 35.011 96.187 35.635C96.749 36.371 92.125 43.301 83.027 55.359C75.312 65.583 69 74.185 69 74.474C69 75.534 74.664 74.963 76.185 73.75C77.047 73.063 82.794 65.638 88.957 57.25C95.121 48.862 100.486 42 100.881 42C101.275 42 106.486 48.746 112.46 56.991C118.434 65.236 124.107 72.692 125.067 73.561C126.103 74.498 128.1 75.01 129.977 74.82L133.142 74.5L119.698 56.803C112.305 47.07 106 38.442 105.688 37.629C105.336 36.713 110.032 29.749 118.028 19.325C130.174 3.493 130.786 2.481 128.403 2.177C124.453 1.674 122.216 3.815 111.5 18.358C106 25.822 101.275 31.929 101 31.929C100.725 31.929 96 25.829 90.5 18.374C85 10.918 79.612 4.184 78.527 3.409C76.671 2.083 71 1.404 71 2.508ZM221 38.5V75H223.5H226V52.538C226 26.777 227.023 21.977 234 15C237.998 11.002 247.021 7 252.038 7C254.573 7 255 6.619 255 4.36C255 1.766 254.907 1.73 249.636 2.274C241.983 3.064 234.69 6.528 230.023 11.591L226 15.955V8.978C226 2.201 225.928 2 223.5 2H221V38.5ZM169.903 5.992C163.695 7.07 160.041 9.105 155.715 13.894C150.638 19.514 148.542 27.024 148.571 39.5C148.617 59.895 155.863 69.674 172.37 71.614C182.547 72.81 193.443 66.932 198.149 57.707C201.004 52.111 203.263 40.373 202.518 35C199.607 13.989 187.231 2.981 169.903 5.992ZM25.994 6.934C15.406 10.155 7 21.113 7 31.695V35.033L33.25 34.767L59.5 34.5L59.229 31C58.107 16.512 47.368 5.911 34 6.096C30.975 6.138 27.372 6.515 25.994 6.934ZM278.852 7.331C271.242 10.175 265.232 17.057 262.607 25.932C261.723 28.919 261 31.956 261 32.682C261 33.74 266.232 34 287.5 34H314V31.126C314 23.707 308.218 13.428 301.74 9.33C298.321 7.168 296.047 6.582 290 6.308C285.308 6.095 281.134 6.478 278.852 7.331Z" fill="white"/>
</svg>
