<svg width="53" height="53" viewBox="0 0 53 53" fill="none" xmlns="http://www.w3.org/2000/svg">
<path fill-rule="evenodd" clip-rule="evenodd" d="M0 26.5C0 11.8645 11.8645 0 26.5 0C41.1355 0 53 11.8645 53 26.5C53 41.1355 41.1355 53 26.5 53C11.8645 53 0 41.1355 0 26.5ZM13.25 26.7775C13.25 19.4839 19.1659 13.568 26.4595 13.568C33.7531 13.568 39.6689 19.4839 39.75 26.7775C39.75 32.6123 36.0221 37.5558 30.7546 39.3386C30.1063 39.4197 29.8631 39.0145 29.8631 38.6903V35.0435C29.8631 33.8279 29.458 33.0175 28.9717 32.6123C31.8892 32.2882 34.9687 31.2347 34.9687 26.1292C34.9687 24.6705 34.4014 23.4548 33.591 22.5634C33.5974 22.538 33.6063 22.506 33.6169 22.4678C33.7409 22.0203 34.1009 20.7215 33.4289 19.0787C33.4289 19.0787 32.2943 18.7545 29.7821 20.4564C28.7286 20.2133 27.594 20.0512 26.4595 20.0512C25.3249 20.0512 24.1904 20.1322 23.1369 20.4564C20.6246 18.7545 19.4901 19.0787 19.4901 19.0787C18.7738 20.8295 19.2298 22.1896 19.3233 22.4682L19.328 22.4824C18.4365 23.4549 17.9503 24.5894 17.9503 26.0481C17.9503 31.1536 21.0298 32.2882 23.9473 32.6123C23.6231 32.9365 23.2179 33.5038 23.1369 34.3952C22.4075 34.7194 20.5436 35.2867 19.328 33.2607C19.328 33.2607 18.5986 31.964 17.302 31.883C17.302 31.883 16.0054 31.883 17.221 32.6934C17.221 32.6934 18.1124 33.0986 18.6796 34.6383C18.6796 34.6383 19.4901 37.2316 23.1369 36.4212V38.6903C23.1369 39.0145 22.8937 39.4197 22.2454 39.3386C17.0588 37.5558 13.25 32.6123 13.25 26.7775Z" fill="white"/>
</svg>
