<svg width="74" height="100" viewBox="0 0 74 100" fill="none" xmlns="http://www.w3.org/2000/svg">
<path d="M23.7526 77.3358C23.7526 77.3358 19.9313 79.5579 26.4722 80.3099C34.3966 81.2138 38.4463 81.0844 47.179 79.4314C47.179 79.4314 49.475 80.871 52.681 82.118C33.1052 90.5078 8.37655 81.6319 23.7526 77.3358ZM21.3605 66.3873C21.3605 66.3873 17.0745 69.56 23.6203 70.237C32.0852 71.1102 38.77 71.1817 50.3375 68.9543C50.3375 68.9543 51.9375 70.5763 54.4533 71.4634C30.7846 78.3845 4.42207 72.0092 21.3605 66.3873Z" fill="white"/>
<path d="M41.5268 47.8154C46.3504 53.3687 40.2595 58.3661 40.2595 58.3661C40.2595 58.3661 52.5071 52.0435 46.8823 44.1259C41.629 36.7427 37.6001 33.0737 59.4099 20.425C59.4099 20.425 25.1759 28.975 41.5268 47.8151" fill="white"/>
<path d="M67.4175 85.4339C67.4175 85.4339 70.2454 87.7638 64.303 89.5665C53.0036 92.9897 17.2732 94.0233 7.34731 89.7029C3.77937 88.151 10.4705 85.9968 12.5752 85.5445C14.7701 85.0685 16.0247 85.1574 16.0247 85.1574C12.0566 82.362 -9.62323 90.6462 5.0125 93.0183C44.9258 99.4912 77.7704 90.1039 67.4175 85.4339ZM25.5901 55.0436C25.5901 55.0436 7.41564 59.3606 19.1543 60.9279C24.1105 61.5915 33.9909 61.4415 43.1944 60.6702C50.7159 60.0361 58.2685 58.6869 58.2685 58.6869C58.2685 58.6869 55.6163 59.8227 53.6976 61.1329C35.2414 65.9869 -0.412529 63.7288 9.85179 58.7636C18.5324 54.5676 25.5904 55.0436 25.5904 55.0436H25.5901ZM58.1935 73.2676C76.9554 63.5183 68.2806 54.1495 62.2258 55.4119C60.7417 55.7206 60.0801 55.9881 60.0801 55.9881C60.0801 55.9881 60.6311 55.1253 61.6833 54.7518C73.6613 50.5405 82.8735 67.172 57.8165 73.759C57.8165 73.7593 58.1069 73.4998 58.1935 73.2676Z" fill="white"/>
<path d="M46.8823 0.000289532C46.8823 0.000289532 57.2729 10.3946 37.0274 26.3772C20.7928 39.1985 33.3254 46.5086 37.0207 54.8609C27.5442 46.3109 20.5896 38.7841 25.2554 31.7791C32.1032 21.4957 51.0745 16.5102 46.8823 0" fill="white"/>
<path d="M27.4339 99.6856C45.4427 100.839 73.0972 99.046 73.7521 90.5248C73.7521 90.5248 72.4932 93.7554 58.8688 96.3207C43.4979 99.2131 24.5403 98.8755 13.2961 97.0216C13.2964 97.0216 15.598 98.9267 27.4342 99.6856" fill="white"/>
</svg>
