<svg width="53" height="53" viewBox="0 0 53 53" fill="none" xmlns="http://www.w3.org/2000/svg">
<path fill-rule="evenodd" clip-rule="evenodd" d="M0 26.5C0 11.8645 11.8645 0 26.5 0C41.1355 0 53 11.8645 53 26.5C53 41.1355 41.1355 53 26.5 53C11.8645 53 0 41.1355 0 26.5ZM13.5812 22.0281V39.75H19.2125V22.0281H13.5812ZM13.25 16.3969C13.25 18.2188 14.575 19.5438 16.3969 19.5438C18.2188 19.5438 19.5438 18.2188 19.5438 16.3969C19.5438 14.575 18.2188 13.25 16.3969 13.25C14.7406 13.25 13.25 14.575 13.25 16.3969ZM34.1188 39.75H39.4188V28.8188C39.4188 23.3531 36.1062 21.5312 32.9594 21.5312C30.1437 21.5312 28.1562 23.3531 27.6594 24.5125V22.0281H22.3594V39.75H27.9906V30.3094C27.9906 27.825 29.6469 26.5 31.3031 26.5C32.9594 26.5 34.1188 27.3281 34.1188 30.1437V39.75Z" fill="white"/>
</svg>
