<svg width="97" height="100" viewBox="0 0 97 100" fill="none" xmlns="http://www.w3.org/2000/svg">
<path d="M96.4716 59.9022C95.8902 58.1365 94.3673 56.9067 92.3978 56.6116C91.4691 56.4726 90.4055 56.5319 89.147 56.792C86.9532 57.2459 85.3257 57.4187 84.138 57.4521C88.6212 49.8619 92.2667 41.2063 94.3654 33.0585C97.759 19.8837 95.9455 13.8818 93.8264 11.167C88.2183 3.98123 80.0361 0.120977 70.1652 0.00285975C64.8994 -0.0617057 60.2768 0.980837 57.8653 1.73056C55.62 1.33329 53.2059 1.11149 50.6728 1.07047C45.9244 0.99451 41.729 2.0325 38.1442 4.16582C36.1595 3.49281 32.9742 2.54408 29.2958 1.93869C20.6444 0.514446 13.6716 1.62421 8.57139 5.23722C2.3955 9.61172 -0.467472 17.2122 0.0620198 27.8276C0.230185 31.1979 2.1103 41.4524 5.0706 51.1775C6.77195 56.7673 8.58616 61.4092 10.4629 64.9755C13.1243 70.0325 15.9722 73.0105 19.1692 74.08C20.961 74.6786 24.2168 75.0978 27.6411 72.238C28.0751 72.7651 28.6542 73.2889 29.4227 73.7754C30.3987 74.3926 31.5922 74.8969 32.7841 75.1958C37.0795 76.2726 41.1029 76.0033 44.5356 74.494C44.5568 75.1062 44.573 75.6911 44.5867 76.1962C44.6094 77.0154 44.6321 77.8187 44.6621 78.57C44.8654 83.6494 45.2101 87.5989 46.2312 90.3623C46.2873 90.5142 46.3626 90.7459 46.4422 90.9916C46.9516 92.5556 47.8034 95.1739 49.9706 97.2244C52.2147 99.3487 54.9292 100 57.4153 100C58.6622 100 59.8518 99.8359 60.8953 99.6118C64.6146 98.8124 68.8388 97.5947 71.8945 93.2316C74.7836 89.107 76.188 82.8947 76.4422 73.1062C76.4751 72.8293 76.5054 72.565 76.5346 72.3132L76.5952 71.7959L77.2758 71.8559L77.4512 71.8677C81.2394 72.0409 85.8715 71.2353 88.7163 69.9102C90.9642 68.8642 98.1676 65.0507 96.4716 59.9022" fill="black"/>
<path d="M89.9943 60.9034C78.7303 63.2335 77.9558 59.4093 77.9558 59.4093C89.8485 41.7134 94.8204 19.251 90.5303 13.7535C78.8254 -1.24285 58.5641 5.84948 58.2259 6.03331L58.1172 6.05306C55.8917 5.5897 53.4014 5.31397 50.6021 5.26801C45.5056 5.18446 41.6393 6.60794 38.7055 8.83887C38.7055 8.83887 2.56141 -6.09249 4.24268 27.6176C4.60022 34.7889 14.4932 81.8804 26.2927 67.6566C30.6056 62.4553 34.773 58.0576 34.773 58.0576C36.8424 59.4363 39.3202 60.1396 41.9177 59.8871L42.1196 59.7154C42.0567 60.3611 42.0855 60.9927 42.2002 61.7405C39.1604 65.1461 40.0539 65.7439 33.9772 66.9984C27.8282 68.2692 31.4403 70.5313 33.7988 71.123C36.658 71.8397 43.2725 72.8553 47.7417 66.5814L47.5637 67.2973C48.7545 68.254 49.5908 73.5195 49.4507 78.2932C49.3105 83.0665 49.217 86.3438 50.1551 88.9036C51.0941 91.4634 52.0292 97.2231 60.0178 95.5068C66.6925 94.0723 70.1516 90.3552 70.633 84.1546C70.9743 79.7467 71.7473 80.3984 71.7958 76.4573L72.4158 74.5917C73.1305 68.6163 72.5294 66.6885 76.6415 67.5852L77.6414 67.6733C80.6676 67.8112 84.6293 67.1849 86.9545 66.1013C91.9608 63.7716 94.9302 59.8814 89.9936 60.9034H89.9943" fill="black"/>
<path d="M40.8212 30.8246C39.8062 30.6829 38.8869 30.8139 38.4218 31.1671C38.1605 31.3658 38.0794 31.5959 38.0575 31.7543C37.9991 32.174 38.2923 32.6381 38.4726 32.8774C38.9824 33.5549 39.727 34.0205 40.4641 34.1231C40.5709 34.1383 40.6773 34.1451 40.783 34.1451C42.012 34.1451 43.1297 33.1854 43.2282 32.4771C43.3513 31.5899 42.0669 30.9985 40.8212 30.825V30.8246ZM74.4482 30.8527C74.3512 30.1573 73.1172 29.959 71.9461 30.1223C70.7766 30.2856 69.6426 30.8151 69.7373 31.512C69.813 32.054 70.789 32.9791 71.9442 32.9791C72.042 32.9791 72.1404 32.9727 72.2397 32.9586C73.0108 32.8515 73.5766 32.3605 73.8456 32.0775C74.2546 31.6461 74.4917 31.1652 74.4482 30.8527" fill="white"/>
<path d="M93.7425 60.6387C93.313 59.3364 91.9306 58.9174 89.6339 59.3929C82.8145 60.8043 80.3723 59.8267 79.5705 59.2346C84.8711 51.1373 89.2316 41.3491 91.584 32.2169C92.6983 27.891 93.3138 23.8735 93.3642 20.5989C93.4198 17.0048 92.8093 14.3637 91.5503 12.7504C86.4743 6.24631 79.0243 2.75749 70.0063 2.66178C63.8065 2.5919 58.5684 4.18287 57.5529 4.63027C55.4145 4.09703 53.0833 3.76965 50.5453 3.72787C45.8912 3.65229 41.8681 4.76966 38.5374 7.0473C37.0906 6.50723 33.3515 5.2201 28.7789 4.48139C20.8736 3.20527 14.5917 4.17223 10.1088 7.35684C4.75968 11.1571 2.29022 17.9502 2.76858 27.5469C2.92955 30.7756 4.76422 40.708 7.65939 50.2201C11.4704 62.7397 15.6131 69.8271 19.9718 71.2852C20.482 71.4557 21.0702 71.575 21.719 71.575C23.309 71.575 25.2584 70.8564 27.2866 68.4113C29.7604 65.4354 32.3195 62.5317 34.9605 59.704C36.6739 60.6262 38.5563 61.1412 40.4815 61.1928C40.4853 61.2433 40.4902 61.2938 40.4948 61.344C40.1634 61.7402 39.8389 62.1423 39.5214 62.5498C38.1874 64.2479 37.9098 64.6015 33.6159 65.4879C32.3944 65.7409 29.1504 66.4112 29.1027 68.6915C29.0512 71.183 32.9376 72.2294 33.3803 72.3403C34.9234 72.7277 36.41 72.9187 37.8276 72.9187C41.2754 72.9187 44.3096 71.7823 46.7343 69.5837C46.6597 78.4656 47.029 87.2177 48.0925 89.8843C48.9636 92.0673 51.0915 97.4024 57.8128 97.402C58.799 97.402 59.8845 97.2869 61.0787 97.0302C68.0936 95.5224 71.1399 92.4133 72.3181 85.5591C72.9488 81.896 74.0309 73.1489 74.5399 68.4568C75.614 68.7929 76.9969 68.9468 78.4918 68.9464C81.6097 68.9464 85.2074 68.2821 87.4636 67.232C89.9982 66.0516 94.572 63.1552 93.7425 60.6387V60.6387ZM77.0374 28.9332C77.0143 30.3183 76.8241 31.5758 76.6226 32.8884C76.4056 34.3001 76.1814 35.7596 76.125 37.5314C76.0693 39.2557 76.284 41.0483 76.4916 42.7821C76.9113 46.2838 77.3419 49.8889 75.675 53.4461C75.3981 52.9541 75.1515 52.4456 74.9365 51.9235C74.7293 51.4199 74.2793 50.6109 73.6563 49.4912C71.2326 45.1327 65.5571 34.926 68.4625 30.7611C69.3279 29.5215 71.5243 28.2469 77.0374 28.9332V28.9332ZM70.3547 5.46659C78.435 5.64547 84.8268 8.67664 89.3521 14.4754C92.8229 18.9232 89.001 39.1615 77.9365 56.6212C77.8253 56.4793 77.7134 56.3379 77.601 56.197L77.4608 56.0215C80.32 51.2865 79.761 46.6017 79.2633 42.4483C79.0588 40.7437 78.8656 39.1338 78.9148 37.6214C78.9656 36.0187 79.1769 34.6438 79.3815 33.3145C79.6326 31.6764 79.8882 29.9814 79.8178 27.9833C79.8704 27.7736 79.8916 27.526 79.864 27.232C79.6841 25.316 77.5025 19.5814 73.056 14.3911C70.6236 11.5521 67.0766 8.37508 62.2335 6.23226C64.3167 5.79929 67.1653 5.39556 70.3547 5.46659V5.46659ZM25.1402 66.6216C22.9056 69.3159 21.3626 68.7994 20.8551 68.63C17.5486 67.524 13.7118 60.516 10.3292 49.4031C7.40222 39.7874 5.69178 30.1181 5.55619 27.4067C5.12896 18.8317 7.20186 12.8556 11.7177 9.64398C19.067 4.41796 31.1499 7.54598 36.0051 9.13239C35.9354 9.20152 35.8627 9.26608 35.7937 9.33635C27.8263 17.4048 28.0153 31.1899 28.035 32.0327C28.0343 32.3578 28.0615 32.8181 28.0987 33.4512C28.2358 35.7699 28.491 40.0852 27.8093 44.972C27.176 49.5133 28.5721 53.958 31.6388 57.167C31.9536 57.4956 32.2844 57.8085 32.63 58.1043C31.265 59.5703 28.2983 62.8123 25.1402 66.6216V66.6216ZM33.6542 55.2304C31.1824 52.6439 30.0598 49.0465 30.5738 45.3594C31.2934 40.1972 31.0279 35.7012 30.8851 33.2856C30.8651 32.9476 30.8472 32.6514 30.837 32.4178C32.0009 31.3829 37.3947 28.485 41.2413 29.3688C42.9964 29.7718 44.066 30.9704 44.5107 33.0319C46.812 43.7054 44.8152 48.154 43.2108 51.729C42.8802 52.4654 42.5677 53.1616 42.301 53.8817L42.0942 54.4385C41.5708 55.846 41.0837 57.1548 40.7819 58.3975C38.1541 58.3899 35.5979 57.2642 33.6542 55.23V55.2304ZM34.0575 69.6247C33.2902 69.4325 32.6001 69.0987 32.1952 68.8218C32.5334 68.6623 33.1353 68.4451 34.1791 68.2293C39.2305 67.1868 40.0107 66.4507 41.7144 64.2817C42.1048 63.7842 42.5476 63.2206 43.1608 62.5339L43.1616 62.5331C44.0747 61.5077 44.4925 61.6816 45.25 61.9968C45.8639 62.2513 46.462 63.0231 46.7044 63.8723C46.8192 64.2734 46.9479 65.0345 46.5264 65.627C42.9676 70.6236 37.7818 70.5594 34.0575 69.6247V69.6247ZM60.4939 94.2933C54.3142 95.6211 52.1262 92.4593 50.6843 88.8448C49.7537 86.5113 49.2962 75.9886 49.6208 64.3679C49.6249 64.2133 49.603 64.0641 49.5605 63.9236C49.5226 63.6461 49.4649 63.3717 49.3878 63.1024C48.9053 61.4116 47.7293 59.9972 46.3184 59.4108C45.7579 59.178 44.7292 58.7507 43.493 59.0678C43.7566 57.9786 44.2137 56.7484 44.7095 55.4165L44.9174 54.8563C45.1515 54.2247 45.4454 53.5703 45.756 52.8775C47.435 49.1373 49.7344 44.0142 47.2388 32.4406C46.3041 28.1056 43.1824 25.9886 38.4503 26.4804C35.6134 26.7748 33.0179 27.9225 31.7233 28.5807C31.4449 28.722 31.1904 28.8587 30.9525 28.9916C31.3139 24.624 32.6789 16.4614 37.7852 11.2969C41.0004 8.04579 45.2822 6.44001 50.4991 6.5266C60.7784 6.69523 67.3702 11.9851 71.0902 16.3934C74.296 20.1917 76.0318 24.0182 76.7245 26.082C71.5148 25.5507 67.9716 26.5818 66.1756 29.1569C62.268 34.7581 68.3132 45.6295 71.2186 50.8543C71.7515 51.8118 72.2113 52.6394 72.356 52.9911C73.3021 55.2904 74.527 56.8255 75.4213 57.9459C75.6955 58.2893 75.9614 58.6223 76.1636 58.9133C74.5857 59.3694 71.7515 60.4233 72.0098 65.6915C71.8015 68.3349 70.3202 80.711 69.5677 85.0836C68.5742 90.8603 66.4543 93.0119 60.4939 94.2937V94.2933ZM86.2884 64.6934C84.6749 65.4443 81.9748 66.0075 79.4099 66.1287C76.5768 66.2616 75.1345 65.8104 74.7952 65.5328C74.6361 62.2498 75.8545 61.9068 77.1442 61.5437C77.3468 61.4868 77.5445 61.4309 77.7354 61.3641C77.854 61.4609 77.9839 61.557 78.1263 61.6512C80.4033 63.1583 84.4647 63.3208 90.1986 62.134L90.2614 62.1214C89.488 62.8465 88.1647 63.8195 86.2884 64.6934Z" fill="white"/>
</svg>
