<svg width="89" height="100" viewBox="0 0 89 100" fill="none" xmlns="http://www.w3.org/2000/svg">
<path d="M44.1917 0L2.28882e-05 25V75L44.1917 100L88.3834 75V25L44.1917 0Z" fill="black"/>
<path d="M7.89178 73.2749L42.7335 92.9833V77.6333L21.0251 65.6916L7.89178 73.2749ZM5.50845 71.1166V29.8999L18.2585 37.2583V63.7499L5.50845 71.1166ZM80.6335 73.2749L45.7918 92.9833V77.6333L67.5001 65.6916L80.6335 73.2749ZM83.0168 71.1166V29.8999L70.2668 37.2583V63.7499L83.0168 71.1166ZM81.5251 27.2333L45.7918 7.0166V21.8583L68.6835 34.4499L68.8585 34.5499L81.5251 27.2333ZM7.00011 27.2333L42.7335 7.0166V21.8583L19.8418 34.4499L19.6668 34.5499L7.00011 27.2333Z" fill="white"/>
<path d="M45.7917 74.1416L67.2083 62.3666V39.0333L45.7917 51.4V74.1416ZM42.7333 74.1416L21.3167 62.3666V39.0333L42.7333 51.4V74.1416ZM65.7583 36.3333L44.2583 24.5083L22.7583 36.3333L44.2583 48.75L65.7583 36.3333Z" fill="white"/>
</svg>
